<?xml version="1.0" encoding="UTF-8" standalone="no"?>
<svg width="364px" height="361px" viewBox="0 0 364 361" version="1.1" xmlns="http://www.w3.org/2000/svg" xmlns:xlink="http://www.w3.org/1999/xlink" xmlns:sketch="http://www.bohemiancoding.com/sketch/ns">
    <!-- Generator: Sketch 3.4.4 (17249) - http://www.bohemiancoding.com/sketch -->
    <title>chinesefood4</title>
    <desc>Created with Sketch.</desc>
    <defs></defs>
    <g id="Page-1" stroke="none" stroke-width="1" fill="none" fill-rule="evenodd" sketch:type="MSPage">
        <g id="Artboard-2" sketch:type="MSArtboardGroup" transform="translate(-1133.000000, -323.000000)" fill="#FFFFFF">
            <g id="chinesefood4" sketch:type="MSLayerGroup" transform="translate(1133.000000, 323.000000)">
                <g id="Capa_1" sketch:type="MSShapeGroup">
                    <g id="Group">
                        <path d="M79.496,291.615 C62.81,281.302 51.267,264.598 46.113,243.307 C45.138,239.282 41.086,236.805 37.059,237.783 C33.033,238.758 30.56,242.81 31.535,246.837 C37.637,272.047 51.494,291.942 71.609,304.375 C72.838,305.134 74.199,305.496 75.545,305.496 C78.059,305.496 80.514,304.233 81.932,301.938 C84.109,298.415 83.02,293.793 79.496,291.615 L79.496,291.615 Z" id="Shape"></path>
                        <path d="M363.465,69.469 C362.498,65.442 358.449,62.969 354.42,63.927 L175.173,106.959 L175.173,84.908 L338.229,15.081 C342.036,13.45 343.801,9.042 342.17,5.234 C340.539,1.425 336.131,-0.34 332.322,1.292 L174.755,68.768 C173.738,65.831 170.955,63.719 167.673,63.719 C163.531,63.719 160.173,67.076 160.173,71.219 L160.173,75.013 L155.623,76.961 C154.992,73.456 151.934,70.795 148.248,70.795 C144.105,70.795 140.748,74.152 140.748,78.295 L140.748,83.331 L136.205,85.276 C135.594,81.749 132.525,79.063 128.823,79.063 C124.681,79.063 121.323,82.42 121.323,86.563 L121.323,91.649 L116.826,93.575 C116.344,89.898 113.205,87.058 109.398,87.058 C105.255,87.058 101.898,90.415 101.898,94.558 L101.898,99.967 L97.267,101.95 C96.488,98.637 93.522,96.17 89.972,96.17 C85.83,96.17 82.472,99.527 82.472,103.67 L82.472,108.285 L61.694,117.183 C57.886,118.814 56.122,123.222 57.752,127.03 C58.971,129.876 61.74,131.58 64.65,131.58 C65.634,131.58 66.636,131.385 67.599,130.973 L82.472,124.604 L82.472,129.212 L68.154,132.65 C64.127,133.617 61.645,137.666 62.612,141.694 C63.437,145.133 66.511,147.445 69.898,147.445 C70.478,147.445 71.068,147.377 71.656,147.236 L82.472,144.639 L82.472,208.923 L7.5,208.923 C3.358,208.923 0,212.28 0,216.423 C0,244.648 6.892,270.665 19.93,291.662 C32.85,312.469 51.641,327.98 74.48,336.758 L74.48,353.488 C74.48,357.631 77.838,360.988 81.98,360.988 L179.473,360.988 C183.616,360.988 186.973,357.631 186.973,353.488 L186.973,336.758 C209.811,327.981 228.604,312.468 241.522,291.662 C254.561,270.665 261.454,244.647 261.454,216.423 C261.454,212.28 258.096,208.923 253.954,208.923 L116.898,208.923 L116.898,136.374 L121.617,135.241 C122.515,138.379 125.398,140.677 128.823,140.677 C132.965,140.677 136.323,137.32 136.323,133.177 L136.323,131.711 L140.794,130.637 C141.199,134.397 144.381,137.325 148.248,137.325 C152.391,137.325 155.748,133.968 155.748,129.825 L155.748,127.048 L160.173,125.985 L160.173,140.315 C160.173,144.458 163.531,147.815 167.673,147.815 C171.815,147.815 175.173,144.458 175.173,140.315 L175.173,122.384 L357.922,78.511 C361.949,77.546 364.432,73.497 363.465,69.469 L363.465,69.469 Z M97.473,118.181 L101.899,116.286 L101.899,124.55 L97.473,125.613 L97.473,118.181 L97.473,118.181 Z M89.479,345.99 L89.479,338.8 L171.972,338.8 L171.972,345.99 L89.479,345.99 L89.479,345.99 Z M178.76,323.8 L82.693,323.8 C42.326,309.647 17.476,272.69 15.174,223.925 L246.277,223.925 C243.975,272.689 219.127,309.646 178.76,323.8 L178.76,323.8 Z M101.898,208.925 L97.472,208.925 L97.472,141.039 L101.898,139.976 L101.898,208.925 L101.898,208.925 Z M116.898,109.863 L121.323,107.968 L121.323,119.886 L116.898,120.949 L116.898,109.863 L116.898,109.863 Z M136.323,101.545 L140.748,99.649 L140.748,115.223 L136.323,116.286 L136.323,101.545 L136.323,101.545 Z M155.748,111.623 L155.748,93.226 L160.173,91.33 L160.173,110.559 L155.748,111.623 L155.748,111.623 Z" id="Shape"></path>
                    </g>
                </g>
            </g>
        </g>
    </g>
</svg>