<?xml version="1.0" encoding="UTF-8" standalone="no"?>
<svg width="147px" height="95px" viewBox="0 0 147 95" version="1.1" xmlns="http://www.w3.org/2000/svg" xmlns:xlink="http://www.w3.org/1999/xlink" xmlns:sketch="http://www.bohemiancoding.com/sketch/ns">
    <!-- Generator: Sketch 3.4.4 (17249) - http://www.bohemiancoding.com/sketch -->
    <title>fish6</title>
    <desc>Created with Sketch.</desc>
    <defs></defs>
    <g id="Page-1" stroke="none" stroke-width="1" fill="none" fill-rule="evenodd" sketch:type="MSPage">
        <g id="Artboard-2" sketch:type="MSArtboardGroup" transform="translate(-1224.000000, -144.000000)" fill="#FFFFFF">
            <g id="fish6" sketch:type="MSLayerGroup" transform="translate(1224.000000, 144.000000)">
                <g id="Capa_1" sketch:type="MSShapeGroup">
                    <g id="Group">
                        <path d="M111.753041,21.5602449 C107.307367,21.5602449 103.065429,21.8886531 99.1549388,22.4846531 C95.8465306,22.9894286 93.2344694,21.4842245 93.2344694,18.8143878 L93.2344694,13.9794898 C93.2344694,6.35920408 77.5073673,0.183306122 58.11,0.183306122 C38.7126327,0.183306122 22.9885714,6.35616327 22.9885714,13.9794898 L22.9885714,32.2912857 C22.9885714,35.101 20.2913673,37.7343469 17.0589796,38.4975918 C6.84487755,40.9059184 0,45.2907755 0,50.3172449 L0,80.2419184 C0,87.8713265 15.7240612,94.0441837 35.1214286,94.0441837 C54.5187959,94.0441837 70.2428571,87.8713265 70.2428571,80.248 L70.2428571,61.9331633 C70.2428571,59.123449 71.6933265,56.6421429 73.457,56.3015714 C75.2206735,55.961 76.6285714,57.7763673 76.6285714,60.4462041 L76.6285714,65.281102 C76.6285714,72.9013878 92.3556735,79.0772857 111.75,79.0772857 C131.147367,79.0772857 146.87751,72.9013878 146.87751,65.281102 L146.87751,35.3564286 C146.87751,27.7391837 131.150408,21.5602449 111.753041,21.5602449 L111.753041,21.5602449 Z M35.1214286,62.6903265 C20.2335918,62.6903265 8.16155102,57.9466531 8.16155102,52.0991633 C8.16155102,46.2516735 20.230551,41.508 35.1214286,41.508 C50.0123061,41.508 62.0813061,46.2486327 62.0813061,52.0991633 C62.0813061,57.9496939 50.0092653,62.6903265 35.1214286,62.6903265 L35.1214286,62.6903265 Z M58.1130408,26.3556122 C43.2221633,26.3556122 31.1531633,21.6149796 31.1531633,15.764449 C31.1501224,9.91391837 43.2221633,5.17328571 58.1130408,5.17328571 C73.0039184,5.17328571 85.0759592,9.91391837 85.0759592,15.764449 C85.0729184,21.6149796 73.0039184,26.3556122 58.1130408,26.3556122 L58.1130408,26.3556122 Z M111.756082,47.732551 C96.8682449,47.732551 84.7962041,42.9919184 84.7962041,37.1413878 C84.7962041,31.2908571 96.8652041,26.5502245 111.756082,26.5502245 C126.646959,26.5502245 138.719,31.2908571 138.719,37.1413878 C138.719,42.9919184 126.646959,47.732551 111.756082,47.732551 L111.756082,47.732551 Z" id="Shape"></path>
                        <path d="M50.0883265,47.683898 C47.9962449,46.8294286 45.5210204,47.4315102 44.2803673,49.0096939 C43.9671633,49.1769388 43.4441429,49.3654694 42.7204286,49.5509592 C42.5957551,49.1708571 42.4072245,48.8029184 42.1609184,48.4532245 C40.677,46.3641837 37.25,45.2025918 31.9711429,45.0079796 C29.0610816,44.8924286 19.2514082,44.8741837 16.7336122,49.1982245 C15.8639388,50.6882245 15.9490816,52.3667551 16.9677551,53.7989796 C19.2757347,57.0435306 25.7617959,57.9466531 30.7973878,58.1351837 C31.107551,58.1473469 31.8251837,58.1686327 32.8256122,58.1686327 C37.7274082,58.1686327 49.352449,57.6425714 52.183449,52.7894286 C53.2872653,50.8889184 52.3537347,48.6083061 50.0883265,47.683898 L50.0883265,47.683898 Z" id="Shape"></path>
                        <ellipse id="Oval" cx="56.918" cy="14.8400408" rx="14.9152041" ry="5.02038776"></ellipse>
                        <ellipse id="Oval" cx="111.868592" cy="36.5484286" rx="14.9152041" ry="5.02038776"></ellipse>
                    </g>
                </g>
            </g>
        </g>
    </g>
</svg>