<?xml version="1.0" encoding="UTF-8" standalone="no"?>
<svg width="230px" height="158px" viewBox="0 0 230 158" version="1.1" xmlns="http://www.w3.org/2000/svg" xmlns:xlink="http://www.w3.org/1999/xlink" xmlns:sketch="http://www.bohemiancoding.com/sketch/ns">
    <!-- Generator: Sketch 3.4.4 (17249) - http://www.bohemiancoding.com/sketch -->
    <title>hamburger12</title>
    <desc>Created with Sketch.</desc>
    <defs></defs>
    <g id="Page-1" stroke="none" stroke-width="1" fill="none" fill-rule="evenodd" sketch:type="MSPage">
        <g id="Artboard-2" sketch:type="MSArtboardGroup" transform="translate(-797.000000, -345.000000)" fill="#FFFFFF">
            <g id="hamburger12" sketch:type="MSLayerGroup" transform="translate(797.000000, 345.000000)">
                <g id="Capa_1" sketch:type="MSShapeGroup">
                    <path d="M9.79,133.625 C9.79,133.625 5.667,157.445 16.316,157.445 L213.732,157.445 C222.408,157.445 220.249,133.625 220.249,133.625 L9.79,133.625 L9.79,133.625 Z M6.517,84.793 L222.975,84.793 L222.975,102.506 L6.517,102.506 L6.517,84.793 L6.517,84.793 Z M111.136,113.361 C112.787,113.263 113.999,114.045 114.585,114.846 C115.806,114.621 117.741,114.201 120.75,113.38 C127.824,111.543 130.823,109.618 133.148,108.055 L108.205,108.055 L110.061,111.435 L111.136,113.361 L111.136,113.361 Z M88.508,110.137 C90.452,110.293 92.182,109.297 93.803,108.056 L83.906,108.056 C85.254,109.473 85.821,110.059 88.508,110.137 L88.508,110.137 Z M184.031,108.056 L176.703,108.056 L181.363,109.795 L184.031,108.056 L184.031,108.056 Z M34.244,117.807 C39.93,115.785 44.913,112.658 49.72,109.639 L52.299,108.056 L15.662,108.056 C17.811,111.974 24.22,121.373 34.244,117.807 L34.244,117.807 Z M8.989,109.619 L11.91,108.056 L0,108.056 L0,125.769 L29.154,125.769 C18.827,125.34 11.656,115.736 8.989,109.619 L8.989,109.619 Z M206.307,108.056 L215.804,113.742 L212.736,120.093 L194.818,109.404 L182.087,117.709 L166.025,111.661 L144.296,111.661 C140.329,111.661 139.176,112.452 136.822,114.035 C134.194,115.842 130.608,118.246 122.255,120.434 C113.325,122.74 110.892,123.082 109.231,120.698 L108.791,120.073 C106.397,119.076 105.244,116.693 104.355,114.865 C103.691,113.507 102.958,112.002 101.707,110.439 L99.675,112.286 C97.037,114.504 93.354,117.572 88.322,117.376 C83.154,117.21 81.17,115.139 79.421,113.302 C77.995,111.778 76.48,110.195 71.527,109.14 C65.792,107.86 59.822,111.622 52.925,115.96 C48.069,119.008 42.549,122.438 36.247,124.714 C34.303,125.388 32.476,125.711 30.717,125.769 L229.471,125.769 L229.471,108.056 L206.307,108.056 L206.307,108.056 L206.307,108.056 Z M29.838,125.848 L30.717,125.77 L29.154,125.77 L29.838,125.848 L29.838,125.848 Z M128.575,0.321 C125.976,0.106 110.842,0.028 108.204,0.028 C62.099,0.028 26.77,33.96 8.949,77.808 L218.959,77.202 C202.663,34.379 172.248,3.652 128.575,0.321 L128.575,0.321 Z" id="Shape"></path>
                </g>
            </g>
        </g>
    </g>
</svg>