<?xml version="1.0" encoding="UTF-8" standalone="no"?>
<svg width="93px" height="77px" viewBox="0 0 93 77" version="1.1" xmlns="http://www.w3.org/2000/svg" xmlns:xlink="http://www.w3.org/1999/xlink" xmlns:sketch="http://www.bohemiancoding.com/sketch/ns">
    <!-- Generator: Sketch 3.4.4 (17249) - http://www.bohemiancoding.com/sketch -->
    <title>hamburger5</title>
    <desc>Created with Sketch.</desc>
    <defs></defs>
    <g id="Page-1" stroke="none" stroke-width="1" fill="none" fill-rule="evenodd" sketch:type="MSPage">
        <g id="Artboard-2" sketch:type="MSArtboardGroup" transform="translate(-1027.000000, -163.000000)" fill="#FFFFFF">
            <g id="hamburger5" sketch:type="MSLayerGroup" transform="translate(1027.000000, 163.000000)">
                <g id="Capa_1" sketch:type="MSShapeGroup">
                    <path d="M85.508,25.972 L7.575,25.972 C7.575,11.816 19.05,0.341 33.206,0.341 L59.878,0.341 C74.033,0.341 85.508,11.816 85.508,25.972 L85.508,25.972 Z M6.945,57.361 C6.945,67.988 15.558,76.599 26.183,76.599 L66.903,76.599 C77.527,76.599 86.139,67.988 86.139,57.361 L6.945,57.361 L6.945,57.361 Z M85.515,45.527 C83.559,45.876 81.577,46.09 79.631,46.224 C74.877,46.55 69.797,46.499 65.127,45.195 L63.281,45.195 C57.665,48.187 50.545,48.544 44.454,47.298 C42.81,46.962 40.971,45.921 39.155,45.195 L33.321,45.195 C29.54,46.687 26.465,48.462 22.061,47.718 C20.253,47.413 19.164,46.431 18.668,45.195 L9.386,45.195 C6.498,45.195 4.157,47.537 4.157,50.424 C4.157,53.313 6.499,55.653 9.386,55.653 L83.697,55.653 C86.586,55.653 88.926,53.311 88.926,50.424 C88.926,48.177 87.506,46.265 85.515,45.527 L85.515,45.527 Z M80.029,41.931 L85.844,43.382 C86.99,43.667 88.15,42.972 88.434,41.827 C88.72,40.681 88.025,39.521 86.879,39.237 L80.329,37.601 C79.85,37.484 79.35,37.533 78.905,37.74 C76.056,39.074 72.478,40.513 71.157,40.769 C70.186,40.29 67.99,39.671 62.362,39.123 C62.042,39.092 61.716,39.133 61.417,39.246 L57.732,40.602 L51.223,39.164 C50.936,39.101 50.637,39.096 50.348,39.154 L42.579,40.688 L35.933,40.688 L29.924,39.176 C29.61,39.1 29.28,39.094 28.96,39.16 C25.84,39.824 22.11,40.552 21.053,40.673 C20.596,40.457 19.645,39.832 19.051,39.444 C16.99,38.089 15.628,37.195 14.216,37.664 C13.657,37.836 9.758,38.635 6.311,39.305 C5.153,39.532 4.398,40.653 4.624,41.811 C4.848,42.969 5.969,43.723 7.128,43.499 C9.041,43.127 13.191,42.309 14.912,41.895 C15.383,42.147 16.185,42.674 16.705,43.016 C18.599,44.26 19.725,44.965 20.861,44.965 C22.011,44.965 26.863,43.973 29.363,43.444 L35.149,44.899 C35.319,44.942 35.494,44.963 35.67,44.963 L42.789,44.963 C42.928,44.963 43.066,44.949 43.203,44.922 L50.74,43.434 L57.423,44.913 C57.823,45.002 58.239,44.973 58.622,44.831 L62.433,43.428 C65.109,43.706 68.199,44.182 69.092,44.522 C69.424,44.832 69.841,45.104 70.712,45.104 C72.12,45.101 74.709,44.384 80.029,41.931 L80.029,41.931 Z M4.44,34.247 C7.336,34.618 9.915,33.958 13.127,35.358 C16.338,36.758 17.767,39.036 21.704,39.35 C28.004,39.803 31.503,36.743 36.924,35.412 C38.982,34.777 41.329,34.654 43.676,34.531 C47.313,34.078 50.592,31.814 53.694,31.127 C57.591,30.66 58.032,34.037 61.476,34.902 C63.069,35.34 67.199,34.338 69.024,34.242 C69.26,34.228 69.545,34.232 69.849,34.244 C71.968,35.631 73.907,36.076 76.696,35.93 C77.739,35.873 78.068,37.164 79.344,36.575 C80.04,36.36 80.215,35.335 80.336,34.692 C81.566,34.538 82.596,34.219 83.236,33.631 C86.765,33.162 92.009,32.647 92.844,29.848 C94.464,25.84 75.06,29.741 71.916,29.645 C68.252,29.577 65.26,27.381 61.35,27.586 C56.396,27.848 52.539,29.098 47.887,30.127 C39.873,31.856 30.705,31.555 23.157,32.215 C17.696,32.764 16.447,28.906 11.945,27.838 C9.571,27.44 1.215,27.617 0.323,30.541 C-1.064,34.015 2.339,34.097 4.44,34.247 L4.44,34.247 Z" id="Shape"></path>
                </g>
            </g>
        </g>
    </g>
</svg>