<?xml version="1.0" encoding="UTF-8" standalone="no"?>
<svg width="237px" height="298px" viewBox="0 0 237 298" version="1.1" xmlns="http://www.w3.org/2000/svg" xmlns:xlink="http://www.w3.org/1999/xlink" xmlns:sketch="http://www.bohemiancoding.com/sketch/ns">
    <!-- Generator: Sketch 3.4.4 (17249) - http://www.bohemiancoding.com/sketch -->
    <title>healthyfood33</title>
    <desc>Created with Sketch.</desc>
    <defs></defs>
    <g id="Page-1" stroke="none" stroke-width="1" fill="none" fill-rule="evenodd" sketch:type="MSPage">
        <g id="Artboard-2" sketch:type="MSArtboardGroup" transform="translate(-438.000000, -275.000000)" fill="#FFFFFF">
            <g id="healthyfood33" sketch:type="MSLayerGroup" transform="translate(438.000000, 275.000000)">
                <g id="Capa_1" sketch:type="MSShapeGroup">
                    <path d="M236.917,74.5 C236.917,42.52 210.898,16.501 178.918,16.501 C149.652,16.501 125.395,38.293 121.483,66.5 L87.352,66.5 L72.864,6.132 C72.312,3.834 70.773,1.898 68.658,0.842 C66.544,-0.215 64.071,-0.279 61.902,0.659 L5.402,25.159 C1.348,26.917 -0.513,31.628 1.245,35.681 C3.003,39.734 7.716,41.594 11.767,39.838 L59.528,19.127 L70.897,66.5 L54.665,66.5 C52.474,66.5 50.379,67.398 48.869,68.986 C47.358,70.573 46.565,72.711 46.675,74.898 L57.407,289.898 C57.62,294.157 61.134,297.5 65.397,297.5 L168.436,297.5 C172.7,297.5 176.213,294.157 176.426,289.898 L184.297,132.24 C213.765,129.515 236.917,104.666 236.917,74.5 L236.917,74.5 Z M170.762,82.5 L169.913,99.5 L63.923,99.5 L63.074,82.5 L170.762,82.5 L170.762,82.5 Z" id="Shape"></path>
                </g>
            </g>
        </g>
    </g>
</svg>