<?xml version="1.0" encoding="UTF-8" standalone="no"?>
<svg width="491px" height="492px" viewBox="0 0 491 492" version="1.1" xmlns="http://www.w3.org/2000/svg" xmlns:xlink="http://www.w3.org/1999/xlink" xmlns:sketch="http://www.bohemiancoding.com/sketch/ns">
    <!-- Generator: Sketch 3.4.4 (17249) - http://www.bohemiancoding.com/sketch -->
    <title>noodles</title>
    <desc>Created with Sketch.</desc>
    <defs></defs>
    <g id="Page-1" stroke="none" stroke-width="1" fill="none" fill-rule="evenodd" sketch:type="MSPage">
        <g id="Artboard-2" sketch:type="MSArtboardGroup" transform="translate(-1027.000000, -697.000000)" fill="#FFFFFF">
            <g id="noodles" sketch:type="MSLayerGroup" transform="translate(1027.000000, 697.000000)">
                <g id="Layer_1" sketch:type="MSShapeGroup">
                    <path d="M488.910991,63.31315 C484.081991,53.17115 471.936991,48.86615 461.795991,53.70315 L214.246991,171.69915 L205.075991,153.41415 L453.152991,38.81015 C453.527991,38.63615 453.948991,38.42915 454.320991,38.23115 C464.194991,32.87015 467.855991,20.51915 462.502991,10.64715 C457.147991,0.775150046 444.798991,-2.89484995 434.918991,2.46715005 L194.708991,132.74815 L190.887991,125.12915 C187.862991,119.11715 180.547991,116.67915 174.511991,119.69615 C170.918991,121.49615 168.815991,124.87215 168.174991,128.55015 C164.844991,126.87315 160.885991,126.54415 157.292991,128.33915 C153.699991,130.13915 151.596991,133.51515 150.955991,137.19415 C147.622991,135.50915 143.655991,135.17915 140.057991,136.98015 C134.037991,139.99715 131.607991,147.32815 134.624991,153.35615 L139.348991,162.77415 L109.996991,178.69315 C106.111991,180.81315 104.459991,185.61715 106.342991,189.69215 C108.304991,193.94215 113.338991,195.79215 117.589991,193.83015 L147.901991,179.82715 L157.410991,198.79015 L127.676991,212.96415 C123.689991,214.87915 121.791991,219.59615 123.458991,223.76615 C125.197991,228.10915 130.130991,230.22215 134.474991,228.48315 L165.979991,215.87415 L172.788991,229.45315 C174.926991,233.71815 179.230991,236.17915 183.701991,236.17915 C185.544991,236.17915 187.410991,235.76615 189.167991,234.88415 C190.642991,234.14415 191.890991,233.13415 192.906991,231.95815 L192.906991,323.35515 L20.603991,323.35515 C13.613991,323.35515 7.100991,326.89715 3.304991,332.76715 C-0.491008997,338.63715 -1.056009,346.03215 1.811991,352.40815 L55.334991,471.49615 C60.847991,483.75915 73.038991,491.64615 86.485991,491.64615 L282.337991,491.64615 C295.782991,491.64615 307.975991,483.75815 313.486991,471.49615 L367.009991,352.40815 C369.877991,346.03215 369.312991,338.63715 365.516991,332.76715 C361.721991,326.89815 355.208991,323.35515 348.219991,323.35515 L217.304991,323.35515 L217.339991,218.82915 C219.299991,218.82815 221.871991,218.49115 223.626991,217.61015 C229.645991,214.58915 232.076991,207.26215 229.059991,201.23415 L224.628991,192.40115 L478.108991,90.95315 C478.490991,90.80215 478.925991,90.61215 479.300991,90.43015 C489.442991,85.59115 493.746991,73.45515 488.910991,63.31315 L488.910991,63.31315 Z" id="Shape"></path>
                </g>
            </g>
        </g>
    </g>
</svg>