<?xml version="1.0" encoding="UTF-8" standalone="no"?>
<svg width="200px" height="226px" viewBox="0 0 200 226" version="1.1" xmlns="http://www.w3.org/2000/svg" xmlns:xlink="http://www.w3.org/1999/xlink" xmlns:sketch="http://www.bohemiancoding.com/sketch/ns">
    <!-- Generator: Sketch 3.4.4 (17249) - http://www.bohemiancoding.com/sketch -->
    <title>Group</title>
    <desc>Created with Sketch.</desc>
    <defs></defs>
    <g id="Page-1" stroke="none" stroke-width="1" fill="none" fill-rule="evenodd" sketch:type="MSPage">
        <g id="Artboard-2" sketch:type="MSArtboardGroup" transform="translate(-123.000000, -515.000000)" fill="#FFFFFF">
            <g id="Group" sketch:type="MSLayerGroup" transform="translate(123.000000, 515.000000)">
                <path d="M100.150428,225.360486 L100.150428,225.360486 C122.670083,225.334601 145.595265,222.193929 168.261599,215.515686 C179.228067,212.29736 189.607816,208.12993 199.659693,203.582858 L100.150428,0.00862822029 L100.150428,0 L100.150428,0 L100.150428,0 L0.649792079,203.582858 C10.7016687,208.121302 21.0727895,212.29736 32.0392575,215.515686 C54.7228486,222.193929 77.6048888,225.334601 100.150428,225.360486 L100.150428,225.360486 Z M134.671938,150.303597 C143.429581,150.303597 150.51335,157.413251 150.51335,166.14501 C150.51335,174.902653 143.420953,181.995051 134.671938,181.995051 C125.922922,181.995051 118.813269,174.894025 118.813269,166.14501 C118.813269,157.404623 125.914294,150.303597 134.671938,150.303597 L134.671938,150.303597 Z M107.294595,70.9498554 C113.653593,70.9498554 118.813269,76.1181594 118.813269,82.4599013 C118.813269,88.8275279 113.653593,93.9872036 107.294595,93.9872036 C100.935597,93.9872036 95.7672926,88.8188997 95.7672926,82.4599013 C95.7672926,76.1181594 100.935597,70.9498554 107.294595,70.9498554 L107.294595,70.9498554 Z M80.3227782,115.471472 C95.2237147,115.471472 107.294595,127.542352 107.294595,142.451917 C107.294595,157.326969 95.2237147,169.406477 80.3227782,169.406477 C65.4132136,169.406477 53.3423334,157.352853 53.3423334,142.451917 C53.3595898,127.542352 65.43047,115.471472 80.3227782,115.471472 L80.3227782,115.471472 Z" id="Shape" sketch:type="MSShapeGroup"></path>
            </g>
        </g>
    </g>
</svg>