<?xml version="1.0" encoding="UTF-8" standalone="no"?>
<svg width="260px" height="335px" viewBox="0 0 260 335" version="1.1" xmlns="http://www.w3.org/2000/svg" xmlns:xlink="http://www.w3.org/1999/xlink" xmlns:sketch="http://www.bohemiancoding.com/sketch/ns">
    <!-- Generator: Sketch 3.4.4 (17249) - http://www.bohemiancoding.com/sketch -->
    <title>potatoes4</title>
    <desc>Created with Sketch.</desc>
    <defs></defs>
    <g id="Page-1" stroke="none" stroke-width="1" fill="none" fill-rule="evenodd" sketch:type="MSPage">
        <g id="Artboard-2" sketch:type="MSArtboardGroup" transform="translate(-1449.000000, -853.000000)" fill="#FFFFFF">
            <g id="potatoes4" sketch:type="MSLayerGroup" transform="translate(1449.000000, 853.000000)">
                <g id="Capa_1" sketch:type="MSShapeGroup">
                    <g id="Group">
                        <path d="M248.856,91.869 C242.045,83.115 232.376,78.166 220.125,77.135 L220.125,40.523 C220.125,36.38 216.767,33.023 212.625,33.023 L187.137,33.023 L187.137,7.5 C187.137,3.357 183.779,0 179.637,0 L146.649,0 C142.506,0 139.149,3.357 139.149,7.5 L139.149,49.763 L121.16,49.763 L121.16,22.404 C121.16,18.261 117.802,14.904 113.66,14.904 L80.671,14.904 C76.529,14.904 73.171,18.261 73.171,22.404 L73.171,30.922 L47.684,30.922 C43.542,30.922 40.184,34.28 40.184,38.422 L40.184,77.134 C27.933,78.165 18.265,83.114 11.452,91.868 C-3.606,111.218 1.701,142.219 1.934,143.529 C1.94,143.562 39.555,328.303 39.555,328.303 C40.266,331.797 43.339,334.307 46.904,334.307 L213.405,334.307 C216.97,334.307 220.043,331.797 220.755,328.303 C220.755,328.303 258.37,143.562 258.376,143.529 C258.607,142.22 263.914,111.219 248.856,91.869 L248.856,91.869 Z M220.125,92.202 C227.495,93.067 233.027,95.97 236.994,101.05 C244.633,110.831 244.858,126.205 244.278,134.716 L220.125,134.716 L220.125,92.202 L220.125,92.202 Z M187.137,48.023 L205.125,48.023 L205.125,134.715 L199.77,134.715 C195.628,134.715 192.27,138.072 192.27,142.215 C192.27,146.996 190.419,151.672 187.137,155.994 L187.137,48.023 L187.137,48.023 Z M154.148,15 L172.136,15 L172.136,168.378 C166.837,171.34 160.743,173.803 154.148,175.585 L154.148,15 L154.148,15 Z M121.16,64.763 L139.148,64.763 L139.148,178.325 C136.189,178.615 133.184,178.767 130.154,178.767 C127.123,178.767 124.119,178.615 121.16,178.325 L121.16,64.763 L121.16,64.763 Z M88.171,29.904 L106.16,29.904 L106.16,175.585 C99.564,173.803 93.47,171.34 88.171,168.377 L88.171,29.904 L88.171,29.904 Z M55.184,45.923 L73.171,45.923 L73.171,155.994 C69.889,151.671 68.039,146.997 68.039,142.216 C68.039,138.073 64.681,134.716 60.539,134.716 L55.184,134.716 L55.184,45.923 L55.184,45.923 Z M23.29,101.081 C27.258,95.982 32.799,93.069 40.184,92.202 L40.184,134.716 L15.994,134.716 C15.365,125.301 16.1,110.321 23.29,101.081 L23.29,101.081 Z M207.277,319.309 L53.031,319.309 L18.499,149.716 L53.894,149.716 C59.516,174.256 92.156,193.767 130.155,193.767 C168.154,193.767 200.794,174.256 206.416,149.716 L241.812,149.716 L207.277,319.309 L207.277,319.309 Z" id="Shape"></path>
                        <path d="M130.154,299.311 C113.976,299.311 98.672,294.834 87.061,286.706 C74.637,278.008 67.794,266.181 67.794,253.403 C67.794,240.625 74.636,228.798 87.061,220.1 C98.671,211.971 113.976,207.495 130.154,207.495 C146.332,207.495 161.636,211.972 173.247,220.1 C185.672,228.798 192.514,240.625 192.514,253.403 C192.514,266.181 185.672,278.008 173.247,286.706 C161.637,294.835 146.332,299.311 130.154,299.311 L130.154,299.311 Z M130.154,222.495 C104.482,222.495 82.795,236.649 82.795,253.403 C82.795,270.157 104.482,284.311 130.154,284.311 C155.826,284.311 177.513,270.157 177.513,253.403 C177.513,236.649 155.826,222.495 130.154,222.495 L130.154,222.495 Z" id="Shape"></path>
                    </g>
                </g>
            </g>
        </g>
    </g>
</svg>