<?xml version="1.0" encoding="UTF-8" standalone="no"?>
<svg width="189px" height="165px" viewBox="0 0 189 165" version="1.1" xmlns="http://www.w3.org/2000/svg" xmlns:xlink="http://www.w3.org/1999/xlink" xmlns:sketch="http://www.bohemiancoding.com/sketch/ns">
    <!-- Generator: Sketch 3.4.4 (17249) - http://www.bohemiancoding.com/sketch -->
    <title>sandwhich</title>
    <desc>Created with Sketch.</desc>
    <defs></defs>
    <g id="Page-1" stroke="none" stroke-width="1" fill="none" fill-rule="evenodd" sketch:type="MSPage">
        <g id="Artboard-2" sketch:type="MSArtboardGroup" transform="translate(-650.000000, -75.000000)" fill="#FFFFFF">
            <g id="sandwhich" sketch:type="MSLayerGroup" transform="translate(649.000000, 75.000000)">
                <g id="Capa_1" sketch:type="MSShapeGroup">
                    <path d="M184.224,87.866 C189.425,78.496 192.181,68.098 184.264,59.262 C186.627,48.033 185.733,37.323 177.853,30.735 C177.453,28.872 176.39,27.296 174.384,26.18 C149.827,12.512 121.806,28.87 96.491,31.18 C93.926,15.917 83.345,0.608 66.823,0.06 C58.927,-0.202 49.869,7.139 47.832,14.547 C46.855,18.096 47.314,20.826 47.598,23.593 C43.847,21.98 39.892,21.105 35.74,19.886 C34.508,19.524 33.057,20.101 32.434,21.231 C30.259,25.181 28.274,29.208 26.413,33.285 C23.418,30.342 20.307,27.997 16.329,25.881 C15.115,25.235 13.408,25.515 12.73,26.825 C5.062,41.649 2.66,65.772 9.533,81.692 C6.744,91.412 4.062,101.164 1.133,110.796 C0.506,112.858 2.184,114.537 4.115,114.71 C7.346,114.998 10.581,115.22 13.815,115.455 C5.044,123.201 2.79,134.021 8.292,143.194 C8.293,155.78 13.788,165.113 29.454,162.592 C48.558,159.521 64.645,147.878 84.407,152.363 C109.629,158.085 172.577,183.522 170.377,135.206 C170.279,133.088 168.514,132.192 166.935,132.434 C177.864,124.369 181.062,101.318 185.564,90.9 C186.153,89.53 185.294,88.275 184.224,87.866 L184.224,87.866 Z M177.065,37.755 C188.418,53.118 167.016,88.537 157.768,99.081 C136.003,123.896 99.476,93.19 75.489,86.587 C76.006,83.883 76.047,80.879 75.482,77.529 C97.947,84.135 122.441,101.529 145.619,96.468 C162.462,92.791 162.839,71.599 166.873,58.032 C168.063,54.027 174.583,45.316 177.065,37.755 L177.065,37.755 Z M55.744,24.5 C53.272,9.256 68.534,3.992 78.939,12.979 C85.192,18.38 88.534,27.386 89.031,35.41 C89.161,37.499 90.752,39.514 93.026,39.405 C115.716,38.309 136.388,25.959 159.295,28.2 C160.534,28.321 172.897,29.179 171.812,33.979 C171.16,36.865 168.743,39.862 167.242,42.358 C163.892,47.928 161.471,53.824 159.602,60.028 C155.108,74.945 155.699,91.248 136.069,90.223 C112.643,89 93.07,72.804 69.438,71.1 C67.944,70.992 67.12,72.295 67.103,73.569 C65.76,73.774 64.483,74.56 63.845,76.103 C56.574,93.702 22.533,90.656 32.046,70.234 C35.93,61.895 41.757,53.977 46.898,46.391 C51.303,39.892 57.096,32.832 55.744,24.5 L55.744,24.5 Z M70.639,79.786 C69.529,99 50.109,102.473 33.281,101.644 C31.914,98.202 30.571,94.748 29.244,91.29 C44.395,100.662 63.056,95.711 70.639,79.786 L70.639,79.786 Z M15.989,31.792 C18.941,33.504 21.829,35.331 24.619,37.289 C19.695,48.722 15.788,60.564 12.215,72.526 C11.09,58.562 9.005,45 15.989,31.792 L15.989,31.792 Z M16.979,117.074 C16.578,122.321 16.284,130.335 19.876,131.833 C25.055,133.994 31.256,133.88 36.777,133.887 C37.707,133.889 38.856,133.191 39.003,132.193 C39.218,130.73 39.891,121.826 43.407,124.585 C46.014,126.631 47.713,129.906 49.417,132.677 C50.884,135.062 54.558,132.929 53.171,130.484 C50.655,126.046 47.324,119.62 41.606,119.065 C36.998,118.618 35.463,125.268 34.814,129.249 C31.886,129.228 28.966,129.167 26.042,128.903 C22.08,128.546 22.122,128.17 21.274,124.553 C20.609,121.716 20.339,118.836 20.151,115.944 C44.881,117.718 69.661,118.763 94.365,120.941 C96.784,121.154 99.306,121.517 101.888,121.955 C101.816,121.981 101.745,121.995 101.673,122.023 C95.704,124.284 95.875,129.172 88.136,129.735 C76.914,130.549 66.553,132.214 55.308,130.183 C53.495,129.855 52.696,132.555 54.537,132.978 C57.215,133.591 59.88,133.962 62.539,134.237 C60.074,135.017 57.599,136.036 55.031,137.364 C47.554,141.232 40.734,145.701 32.607,148.231 C22.285,151.443 10.569,144.927 9.737,132.771 C9.355,127.204 13.11,121.41 16.979,117.074 L16.979,117.074 Z M113.567,132.813 C114.01,133.364 114.588,133.474 115.116,133.317 C129.261,134.008 145.344,138.885 159.49,135.605 C144.207,156.357 108.199,139.774 85.79,134.268 C89.39,134.089 93.007,133.92 96.655,133.885 C97.443,133.877 98.269,133.457 98.647,132.742 C102.783,124.923 108.732,126.802 113.567,132.813 L113.567,132.813 Z M83.554,146.559 C71.969,144.037 62.533,146.829 51.546,150.746 C36.288,156.186 18.526,162.546 12.533,148.475 C13.342,149.249 14.2,150.009 15.15,150.736 C32.672,164.132 53.312,139.09 69.946,137.58 C94.405,135.358 147.988,169.853 164.188,138.563 C159.698,175.227 106.804,151.62 83.554,146.559 L83.554,146.559 Z M158.031,131.17 C144.666,134.15 129.725,130.266 116.109,129.915 C115.345,127.562 114.061,125.493 112.365,123.979 C125.019,126.592 138.392,129.423 149.801,126.787 C162.811,123.78 172.07,106.025 178.944,96.195 C179.014,96.094 179.084,95.991 179.153,95.89 C174.646,109.205 170.422,128.408 158.031,131.17 L158.031,131.17 Z M159.361,112.122 C149.21,124.505 137.603,121.369 123.615,118.607 C85.865,111.151 46.47,112.065 8.164,108.869 C12.658,94.017 16.662,79.024 21.2,64.184 C24.038,54.901 27.345,45.789 31.155,36.861 C35.066,27.695 38.781,24.392 47.585,28.695 C47.327,30.336 46.756,32.127 45.63,34.195 C42.256,40.396 37.623,45.82 33.964,51.84 C28.909,60.155 17.075,75.132 22.99,85.458 C23.146,92.235 26.209,98.899 28.615,105.111 C29.106,106.379 29.965,107.063 31.332,107.179 C47.188,108.531 69.296,104.657 74.678,89.623 C102.761,101.457 141.087,133.071 166.119,98.496 C171.127,91.58 178.244,79.279 182.29,66.646 C187.562,80.673 166.72,103.148 159.361,112.122 L159.361,112.122 Z" id="Shape"></path>
                </g>
            </g>
        </g>
    </g>
</svg>