<?xml version="1.0" encoding="UTF-8" standalone="no"?>
<svg width="527px" height="297px" viewBox="0 0 527 297" version="1.1" xmlns="http://www.w3.org/2000/svg" xmlns:xlink="http://www.w3.org/1999/xlink" xmlns:sketch="http://www.bohemiancoding.com/sketch/ns">
    <!-- Generator: Sketch 3.4.4 (17249) - http://www.bohemiancoding.com/sketch -->
    <title>taco</title>
    <desc>Created with Sketch.</desc>
    <defs></defs>
    <g id="Page-1" stroke="none" stroke-width="1" fill="none" fill-rule="evenodd" sketch:type="MSPage">
        <g id="Artboard-2" sketch:type="MSArtboardGroup" transform="translate(-122.000000, -872.000000)" fill="#FFFFFF">
            <g id="taco" sketch:type="MSLayerGroup" transform="translate(122.000000, 872.000000)">
                <g id="Capa_1" sketch:type="MSShapeGroup">
                    <g id="Layer_2_35_">
                        <path d="M358.486,56.895 C362.752,62.9 366.853,71.439 367.456,82.599 C375.47,85.152 384.984,89.924 394.93,98.625 C401.288,104.19 404.741,111.2 406.127,118.687 C408.278,118.419 410.469,118.266 412.658,118.266 C428.273,118.266 441.144,126.088 447.963,139.724 C457.048,157.893 451.272,175.546 441.164,189.554 C448.336,194.843 455.077,202.206 460.117,212.284 C476.909,245.878 472.816,254.36 444.377,282.798 L443.488,283.689 C452.878,295.345 468.474,296.052 491.51,296.052 C496.072,296.052 507.604,294.79 516.392,283.144 C525.113,271.582 532.59,247.609 518.715,199.05 C501.981,140.423 438.018,78.496 358.486,56.895 L358.486,56.895 Z" id="Shape"></path>
                        <path d="M443,220.777 C432.577,199.93 413.223,197.072 407.973,196.679 C407.161,196.621 406.662,196.612 406.606,196.612 L406.606,196.612 C406.606,196.612 407.027,196.326 407.62,195.904 C413.233,191.926 441.834,170.211 430.866,148.273 C426.783,140.098 419.936,137.392 412.669,137.392 C400.362,137.392 386.879,145.109 383.312,147.299 C382.729,147.653 382.346,147.901 382.346,147.901 C382.346,147.901 382.575,147.433 382.93,146.639 C385.187,141.571 392.836,122.207 382.346,113.017 C368.481,100.882 356.652,98.932 350.493,98.932 C350.359,98.932 350.264,98.941 350.139,98.941 C347.481,98.98 345.941,99.362 345.941,99.362 C346.4,97.985 346.659,96.704 346.984,95.394 C355.216,62.136 321.213,50.832 309.546,50.832 C304.659,50.832 297.813,51.817 291.377,52.993 C283.938,54.351 277.062,55.948 274.365,56.598 C273.6,56.78 273.151,56.895 273.151,56.895 C273.151,56.895 273.151,56.646 273.131,56.254 C273.055,54.427 272.567,48.623 270.07,41.365 C269.095,38.525 267.785,35.484 266.073,32.348 C259.724,20.691 247.694,8.078 224.62,2.302 C219.227,0.954 213.987,0.351 208.928,0.351 C168.459,0.351 139.696,38.697 139.696,38.697 C125.696,30.301 113.638,27.069 103.368,27.069 C69.134,27.069 54.771,62.967 54.771,62.967 C50.363,61.867 46.547,61.36 43.268,61.36 C10.459,61.36 30.512,111.496 30.512,111.496 C-26.127,134.15 12.42,167.379 17.775,171.683 C45.573,119.003 96.12,72.643 187.959,70.091 C189.021,70.062 190.818,69.89 192.692,69.708 C195.599,69.44 198.65,69.173 200.361,69.173 C307.68,69.173 377.2,179.973 410.678,250.861 C411.749,253.136 412.791,255.375 413.795,257.564 C415.144,260.509 417.171,263.55 419.456,266.582 L426.476,268.236 L430.865,269.267 C432.481,267.652 433.982,266.15 435.388,264.736 C455.059,244.912 454.322,243.421 443,220.777 L443,220.777 Z" id="Shape"></path>
                        <path d="M399.854,271.783 C398.572,269.709 397.368,267.613 396.402,265.5 C395.674,263.904 394.9,262.26 394.126,260.605 C362.924,194.001 298.014,88.288 200.361,88.288 C199.051,88.288 196.698,88.527 194.47,88.737 C192.108,88.957 189.842,89.168 188.493,89.206 C108.684,91.424 63.167,130.65 37.252,176.587 C35.627,179.476 34.087,182.392 32.605,185.318 C31.123,188.254 29.727,191.208 28.397,194.172 C12.477,229.554 6.529,266.562 4.416,292.4 L416.942,292.4 C414.188,289.712 411.463,286.767 408.814,283.716 C405.486,279.912 402.407,275.923 399.854,271.783 L399.854,271.783 Z M200.361,166.088 C200.361,156.038 208.508,147.891 218.558,147.891 C228.608,147.891 236.755,156.038 236.755,166.088 C236.755,176.138 228.608,184.286 218.558,184.286 C208.508,184.286 200.361,176.138 200.361,166.088 L200.361,166.088 Z M260.997,239.099 C260.959,242.474 259.964,245.611 258.319,248.306 C255.125,253.546 249.407,257.085 242.819,257.085 C233.295,257.085 225.559,249.741 224.775,240.417 C224.727,239.901 224.622,239.413 224.622,238.888 C224.622,236.038 225.33,233.38 226.497,230.98 C228.161,227.556 230.848,224.773 234.176,222.957 C236.758,221.551 239.675,220.682 242.811,220.682 C248.998,220.682 254.449,223.78 257.738,228.504 C259.794,231.449 261.008,235.016 261.008,238.879 C261.016,238.955 260.997,239.021 260.997,239.099 L260.997,239.099 Z M279.214,208.556 C269.163,208.556 261.016,200.408 261.016,190.359 C261.016,180.308 269.163,172.161 279.214,172.161 C289.264,172.161 297.411,180.308 297.411,190.359 C297.411,200.408 289.264,208.556 279.214,208.556 L279.214,208.556 Z" id="Shape"></path>
                    </g>
                </g>
            </g>
        </g>
    </g>
</svg>