<?xml version="1.0" encoding="UTF-8" standalone="no"?>
<svg width="319px" height="463px" viewBox="0 0 319 463" version="1.1" xmlns="http://www.w3.org/2000/svg" xmlns:xlink="http://www.w3.org/1999/xlink" xmlns:sketch="http://www.bohemiancoding.com/sketch/ns">
    <!-- Generator: Sketch 3.4.4 (17249) - http://www.bohemiancoding.com/sketch -->
    <title>tool1278</title>
    <desc>Created with Sketch.</desc>
    <defs></defs>
    <g id="Page-1" stroke="none" stroke-width="1" fill="none" fill-rule="evenodd" sketch:type="MSPage">
        <g id="Artboard-2" sketch:type="MSArtboardGroup" transform="translate(-649.000000, -711.000000)" fill="#FFFFFF">
            <g id="tool1278" sketch:type="MSLayerGroup" transform="translate(649.000000, 711.000000)">
                <g id="Capa_1" sketch:type="MSShapeGroup">
                    <g id="Group">
                        <path d="M311.501,112 L7.501,112 C3.359,112 0.001,115.358 0.001,119.5 C0.001,123.642 3.359,127 7.501,127 L8.001,127 L8.001,135.5 C8.001,142.539 11.116,148.86 16.034,153.17 C16.731,176.666 32.109,198.402 59.531,214.533 C65.358,217.961 71.617,221.032 78.197,223.774 L56.158,333.967 C56.155,333.983 56.152,333.998 56.149,334.014 L32.146,454.029 C31.334,458.091 33.968,462.042 38.03,462.854 C38.527,462.953 39.021,463.001 39.509,463.001 C43.011,463.001 46.142,460.536 46.856,456.97 L69.649,343 L249.352,343 L258.026,386.369 C242.861,391.89 232.001,406.45 232.001,423.5 C232.001,445.28 249.721,463 271.501,463 C293.281,463 311.001,445.28 311.001,423.5 C311.001,402.174 294.011,384.753 272.857,384.034 L240.805,223.774 C247.385,221.032 253.643,217.96 259.471,214.533 C286.893,198.402 302.271,176.666 302.968,153.17 C307.887,148.859 311.001,142.538 311.001,135.5 L311.001,127 L311.501,127 C315.643,127 319.001,123.642 319.001,119.5 C319.001,115.358 315.643,112 311.501,112 L311.501,112 Z M296.001,423.5 C296.001,437.009 285.01,448 271.501,448 C257.992,448 247.001,437.009 247.001,423.5 C247.001,409.991 257.992,399 271.501,399 C285.01,399 296.001,409.991 296.001,423.5 L296.001,423.5 Z M246.352,328 L72.649,328 L92.446,229.015 C112.852,235.533 135.747,239 159.5,239 C183.253,239 206.149,235.532 226.554,229.015 L246.352,328 L246.352,328 Z M251.865,201.604 C227.313,216.046 194.51,224 159.501,224 C124.492,224 91.689,216.046 67.137,201.604 C46.988,189.752 34.675,174.844 31.708,159 L287.293,159 C284.327,174.844 272.013,189.752 251.865,201.604 L251.865,201.604 Z M296.001,135.5 C296.001,140.187 292.188,144 287.501,144 L31.501,144 C26.814,144 23.001,140.187 23.001,135.5 L23.001,127 L296.001,127 L296.001,135.5 L296.001,135.5 Z" id="Shape"></path>
                        <path d="M266.2,418.2 C264.8,419.59 264,421.53 264,423.5 C264,425.47 264.8,427.4 266.2,428.8 C267.59,430.2 269.53,431 271.5,431 C273.47,431 275.41,430.2 276.8,428.8 C278.2,427.41 279,425.47 279,423.5 C279,421.53 278.2,419.59 276.8,418.2 C275.41,416.8 273.47,416 271.5,416 C269.521,416 267.591,416.8 266.2,418.2 L266.2,418.2 Z" id="Shape"></path>
                        <path d="M144.001,87.5 C144.001,91.642 147.359,95 151.501,95 C155.643,95 159.001,91.642 159.001,87.5 C159.001,80.131 161.668,76.798 165.357,72.185 C169.653,66.814 175.001,60.131 175.001,47.5 C175.001,34.869 169.654,28.186 165.357,22.815 C161.667,18.202 159.001,14.869 159.001,7.5 C159.001,3.358 155.643,0 151.501,0 C147.359,0 144.001,3.358 144.001,7.5 C144.001,20.131 149.348,26.814 153.645,32.185 C157.335,36.798 160.001,40.131 160.001,47.5 C160.001,54.869 157.334,58.202 153.645,62.815 C149.348,68.186 144.001,74.869 144.001,87.5 L144.001,87.5 Z" id="Shape"></path>
                        <path d="M183.501,95 C187.643,95 191.001,91.642 191.001,87.5 C191.001,80.131 193.668,76.798 197.357,72.185 C201.653,66.814 207.001,60.131 207.001,47.5 C207.001,37.494 203.631,31.389 200.695,27.187 C198.323,23.792 193.647,22.964 190.251,25.336 C186.856,27.709 186.027,32.384 188.4,35.78 C190.561,38.872 192.001,42.049 192.001,47.5 C192.001,54.869 189.334,58.202 185.645,62.815 C181.349,68.186 176.001,74.869 176.001,87.5 C176.001,91.642 179.359,95 183.501,95 L183.501,95 Z" id="Shape"></path>
                        <path d="M119.501,95 C123.643,95 127.001,91.642 127.001,87.5 C127.001,80.131 129.668,76.798 133.357,72.185 C137.653,66.814 143.001,60.131 143.001,47.5 C143.001,37.494 139.631,31.389 136.695,27.187 C134.322,23.792 129.646,22.964 126.251,25.336 C122.856,27.709 122.027,32.384 124.4,35.78 C126.561,38.872 128.001,42.049 128.001,47.5 C128.001,54.869 125.334,58.202 121.645,62.815 C117.349,68.186 112.001,74.869 112.001,87.5 C112.001,91.642 115.359,95 119.501,95 L119.501,95 Z" id="Shape"></path>
                    </g>
                </g>
            </g>
        </g>
    </g>
</svg>