<?xml version="1.0" encoding="UTF-8" standalone="no"?>
<svg width="146px" height="375px" viewBox="0 0 146 375" version="1.1" xmlns="http://www.w3.org/2000/svg" xmlns:xlink="http://www.w3.org/1999/xlink" xmlns:sketch="http://www.bohemiancoding.com/sketch/ns">
    <!-- Generator: Sketch 3.4.4 (17249) - http://www.bohemiancoding.com/sketch -->
    <title>corn</title>
    <desc>Created with Sketch.</desc>
    <defs></defs>
    <g id="Page-1" stroke="none" stroke-width="1" fill="none" fill-rule="evenodd" sketch:type="MSPage">
        <g id="Artboard-2" sketch:type="MSArtboardGroup" transform="translate(-122.000000, -52.000000)" fill="#FFFFFF">
            <g id="corn" sketch:type="MSLayerGroup" transform="translate(122.000000, 52.000000)">
                <g id="Capa_1" sketch:type="MSShapeGroup">
                    <g id="Group">
                        <path d="M140.656,57.737 C139.648,57.404 138.611,57.317 137.599,57.414 L137.599,57.23 C137.599,43.351 133.532,32.661 125.837,26.313 C121.23,22.512 112.977,18.517 99.817,21.062 C96.463,21.71 93.518,23.026 90.921,24.187 C84.297,27.144 81.819,28.25 74.894,18.693 C61.069,-0.388 41.714,-0.145 38.453,0.037 C20.836,0.156 8.557,12.521 8.557,30.19 L8.557,57.409 C7.547,57.312 6.513,57.398 5.507,57.729 C2.428,58.74 0.348,61.614 0.348,64.854 L0.348,339.953 C0.348,358.812 15.58,374.156 34.303,374.156 L111.854,374.156 C130.577,374.156 145.809,358.812 145.809,339.953 L145.809,64.855 C145.809,61.618 143.729,58.752 140.656,57.737 L140.656,57.737 Z M23.557,30.19 C23.557,16.128 35.156,15.036 38.711,15.036 C38.945,15.036 39.182,15.025 39.416,15.003 C39.55,14.988 52.898,13.899 62.748,27.494 C76.819,46.914 89.477,41.26 97.039,37.884 C99.08,36.972 101.008,36.111 102.67,35.789 C108.627,34.638 113.209,35.342 116.293,37.885 C120.301,41.191 122.6,48.242 122.6,57.231 L122.6,71.233 C121.661,72.176 120.633,73.171 119.565,74.186 C117.121,69.742 112.946,65.38 105.91,62.273 C104.718,57.969 102.317,54.092 98.905,51.048 C94.216,46.865 88.176,44.753 81.907,45.118 C73.163,45.617 65.85,50.731 62.216,58.009 C58.622,56.852 54.819,56.358 50.986,56.572 C42.765,57.042 35.243,60.485 29.804,66.268 C27.745,68.458 26.065,70.905 24.783,73.532 C24.368,73.076 23.959,72.623 23.558,72.174 L23.558,30.19 L23.557,30.19 Z M107.551,84.489 C98.003,91.868 85.926,99.405 71.692,104.624 C60.774,104.479 47.922,95.727 36.849,85.65 C37.05,82.218 38.39,79.034 40.731,76.544 C43.526,73.572 47.471,71.798 51.84,71.548 C55.723,71.339 59.543,72.535 62.598,74.951 C64.885,76.76 68.014,77.081 70.618,75.769 C73.223,74.46 74.835,71.76 74.748,68.846 C74.61,64.202 78.132,60.357 82.763,60.093 C85.038,59.956 87.222,60.726 88.92,62.241 C90.618,63.757 91.626,65.843 91.755,68.119 C91.89,70.445 93.036,73.557 97.742,75.172 C103.612,77.188 106.68,80.058 107.551,84.489 L107.551,84.489 Z M15.348,85.388 C18.015,88.26 20.996,91.314 24.217,94.368 C32.464,102.19 40.359,108.187 47.862,112.38 C35.382,117.605 23.915,125.44 15.348,134.245 L15.348,85.388 L15.348,85.388 Z M15.348,339.953 L15.348,188.695 L103.543,188.695 L103.543,359.156 L34.303,359.156 C23.851,359.156 15.348,350.542 15.348,339.953 L15.348,339.953 Z M130.809,339.953 C130.809,348.153 125.699,355.15 118.543,357.897 L118.543,188.695 L130.809,188.695 L130.809,339.953 L130.809,339.953 Z M130.809,173.695 L15.348,173.695 L15.348,162.234 C17.487,150.476 37.289,129.503 64.299,122.617 C94.724,114.861 117.479,97.19 130.809,84.301 L130.809,173.695 L130.809,173.695 Z" id="Shape"></path>
                    </g>
                </g>
            </g>
        </g>
    </g>
</svg>